<svg width="50" height="69" viewBox="0 0 50 69" fill="none" xmlns="http://www.w3.org/2000/svg">
<path d="M5.17567 40.917C6.07497 31.6636 13.504 24.9996 24.9994 19.973C18.8607 22.0674 13.0348 24.5045 8.65557 28.4649C8.65557 28.4649 12.5656 24.5045 14.1296 23.5145C25.9378 15.9746 33.6796 13.4233 27.9319 0.399902C31.1772 15.0607 12.0964 19.8588 6.54417 27.7033C-4.52113 43.278 0.483669 58.3577 14.4424 65.3263C30.0433 73.1327 45.1359 65.3263 49.1632 49.6373L48.0684 48.9519C47.9511 49.5612 47.7165 50.3228 47.4037 50.8559C47.5601 49.9801 47.7556 48.8377 47.521 47.9999L44.9013 46.8575C44.784 48.3807 44.4712 50.2085 43.9629 50.9321C44.0802 50.2466 44.1584 49.1042 43.9238 48.3807L41.8515 48.3426C41.5387 66.0498 11.0016 68.3727 11.5099 51.3509C11.7054 45.182 16.3192 41.374 20.0337 41.4501C15.8891 37.7183 12.2919 41.374 10.2978 50.2466C9.51577 44.4204 15.5763 34.7481 22.7316 34.9004C24.7257 34.9385 23.9437 37.1471 22.4188 38.4799L23.8655 37.566C26.798 35.7381 24.6866 31.7017 20.5029 32.806C11.1189 35.3193 7.71717 42.5164 8.57737 51.5794C4.86287 36.6901 15.6154 26.142 34.7744 26.9417C15.8109 26.2562 2.71237 34.4053 7.71717 54.4354C1.34387 41.9452 10.8452 24.9234 32.8585 26.142C42.6335 26.6751 48.6549 24.0857 48.6158 16.6981C40.1311 32.0825 15.3808 13.8041 5.17567 40.917Z" fill="#009740"/>
</svg>
